<svg width="240" height="56" viewBox="0 0 240 56" fill="none" xmlns="http://www.w3.org/2000/svg">
<path d="M34.7095 41.6395C36.0684 40.3016 35.3351 37.2286 33.1152 33.6788C33.922 33.5528 34.6763 33.3603 35.2467 33.0654C37.2995 32.0058 38.6855 30.0746 39.7346 28.077C40.8625 25.9341 41.6194 23.5786 43.0911 21.6274C43.3396 21.2975 43.5881 21.0018 43.8358 20.7235C47.0111 21.1041 49.546 21.7866 49.546 21.7866L50.5146 19.3253C49.292 18.8867 48.0384 18.5396 46.7644 18.2866C47.5449 17.843 48.0541 17.7048 48.0541 17.7048L47.1362 15.2233C45.6645 15.8454 44.4701 16.7633 43.47 17.8623C39.732 17.6531 35.9678 18.3978 32.998 20.7008C30.765 22.4333 29.2565 24.8351 27.8372 27.2379C26.5795 26.0041 25.2404 24.8562 23.8289 23.8018C24.0966 23.3616 24.3836 22.9661 24.6925 22.6608C26.5589 20.8233 29.0211 19.6481 30.6364 17.5455C34.0314 13.1302 31.5481 6.209 28.7551 2.625C28.2546 3.10713 27.4269 3.80975 26.8039 4.3645C29.7727 7.40513 31.8491 12.7286 29.5225 16.7064C28.2223 18.9298 25.8195 20.3245 24.1395 22.2346C23.849 22.5662 23.5891 22.9862 23.3538 23.45C18.9604 20.2991 14.9284 19.0312 13.3306 20.6045C13.1726 20.7673 13.042 20.9547 12.9439 21.1593L12.9378 21.1531L12.8949 21.2782C12.8354 21.4139 12.7811 21.5548 12.7444 21.7087L1.75 53.375L33.8293 42.1593L33.8205 42.1505C34.1653 42.0394 34.4689 41.8758 34.7095 41.6395ZM8.13138 49.2905L5.45388 48.0428L7.26075 42.8365L15.5479 46.697L8.13138 49.2905ZM22.9635 44.1044L9.06938 37.6302L10.8763 32.4249L21.259 37.6364C15.0614 33.6026 12.6831 27.2178 12.6831 27.2178L13.3009 25.4389C14.399 28.217 16.8149 31.6767 20.1346 34.9422C23.4824 38.2375 27.0305 40.6245 29.8664 41.6911L22.9635 44.1044ZM28.3001 27.7069C29.7509 25.627 31.2463 23.5279 33.3253 22.0343C35.3045 20.6115 38.5175 20.3516 41.5634 20.5223C40.5344 22.3195 39.774 24.3136 39.0915 26.229C38.2664 28.5478 37.1604 30.9522 35.0516 32.3741C34.4829 32.7574 33.6858 33.0374 32.8344 33.2448C31.6645 31.4519 30.1298 29.5566 28.3001 27.7069Z" fill="white"/>
<path d="M20.1545 19.2499C21.0312 19.2499 18.4027 16.6249 18.842 14.3228C20.5255 14.1933 24.3737 14.9519 22.1337 11.8754C24.6677 12.3217 25.9802 10.4299 23.588 8.63703C24.3842 8.69303 25.6215 7.19153 24.7334 7.00165C21.8879 6.39878 20.774 7.9379 22.58 10.1578C20.6812 9.80428 19.1334 10.6872 20.5596 12.6699C15.0769 11.9865 18.1962 19.2499 20.1545 19.2499ZM38.9775 16.9172C39.7991 16.5462 38.4052 14.0953 37.952 13.4688C41.4196 13.0978 41.2884 12.0644 39.114 9.85065C45.0255 10.0493 39.2969 6.68928 40.1001 5.35928C40.7957 4.20603 42.9299 5.41528 42.7321 4.77303C42.0654 2.6249 35.7409 4.0774 39.7431 8.0884C36.2501 8.15665 35.915 9.29853 38.5181 11.6654C33.9839 11.7153 37.6834 17.4999 38.9775 16.9172ZM53.9855 25.5718C52.6012 25.9594 52.3877 25.8142 52.5724 27.1923C49.3751 25.7205 45.9924 23.6739 48.0451 29.0963C44.4139 26.9342 44.595 28.8277 43.916 31.9435C43.0322 31.2549 41.7766 29.4402 41.7766 29.4402L40.4466 30.5698C40.4466 30.5698 42.8835 34.0068 44.0866 33.8116C45.1445 33.641 45.7202 31.6417 45.7789 29.8794C49.1476 31.3013 50.7602 31.4912 49.2194 27.3332C51.9126 28.846 55.2149 30.1804 53.9855 25.5718ZM5.29349 10.0073L7.76799 12.4827L5.29349 14.9572L2.81812 12.4827L5.29349 10.0073ZM11.2216 20.2982L8.74537 22.7727L6.26999 20.2964L8.74624 17.821L11.2216 20.2982ZM15.0681 6.1249L17.5426 8.5994L15.0672 11.0757L12.5927 8.5994L15.0681 6.1249ZM42.0102 40.6734L39.534 38.198L42.0085 35.7218L44.4847 38.1972L42.0102 40.6734ZM36.4925 49.1627L34.018 46.6882L36.4925 44.2128L38.9679 46.6882L36.4925 49.1627ZM47.3495 51.1174L44.8732 48.642L47.3469 46.1658L49.8231 48.6412L47.3495 51.1174ZM49.824 39.8439L47.3495 37.3685L49.824 34.894L52.2985 37.3685L49.824 39.8439ZM45.6931 8.7499L48.1676 11.2244L45.6922 13.6998L43.2177 11.2244L45.6931 8.7499Z" fill="white"/>
<path d="M72.7945 33.6577V18.4857H83.3734V21.4638H76.4616V24.5752H82.8326V27.5608H76.4616V30.6796H83.3734V33.6577H72.7945ZM99.6289 22.2787L95.7247 33.6577H91.5761L87.6794 22.2787H91.4946L93.5912 30.1166H93.7097L95.8136 22.2787H99.6289ZM108.891 33.8726C107.701 33.8726 106.673 33.638 105.809 33.1688C104.95 32.6946 104.288 32.0205 103.824 31.1463C103.364 30.2672 103.135 29.2227 103.135 28.0127C103.135 26.8372 103.367 25.8099 103.831 24.9308C104.295 24.0468 104.95 23.3603 105.794 22.8714C106.639 22.3775 107.634 22.1305 108.78 22.1305C109.59 22.1305 110.331 22.2565 111.002 22.5083C111.674 22.7602 112.254 23.1331 112.743 23.627C113.232 24.1209 113.612 24.7308 113.884 25.4568C114.156 26.1779 114.291 27.0051 114.291 27.9386V28.8424H104.402V26.7384H110.921C110.916 26.3532 110.824 26.01 110.647 25.7087C110.469 25.4074 110.224 25.1728 109.913 25.0049C109.607 24.8321 109.254 24.7456 108.854 24.7456C108.449 24.7456 108.086 24.837 107.765 25.0197C107.444 25.1975 107.189 25.442 107.002 25.7531C106.814 26.0594 106.715 26.4075 106.705 26.7977V28.9387C106.705 29.4029 106.797 29.8104 106.98 30.161C107.162 30.5068 107.422 30.7759 107.757 30.9685C108.093 31.1611 108.493 31.2575 108.958 31.2575C109.279 31.2575 109.57 31.213 109.832 31.1241C110.094 31.0352 110.318 30.9043 110.506 30.7315C110.694 30.5586 110.834 30.3462 110.928 30.0944L114.254 30.1907C114.116 30.9364 113.812 31.5859 113.343 32.139C112.879 32.6872 112.269 33.1144 111.513 33.4207C110.758 33.7219 109.884 33.8726 108.891 33.8726ZM122.685 27.1681V33.6577H119.062V22.2787H122.507V24.3678H122.633C122.885 23.6714 123.315 23.1257 123.922 22.7306C124.53 22.3306 125.253 22.1305 126.093 22.1305C126.893 22.1305 127.587 22.3108 128.174 22.6713C128.767 23.0269 129.226 23.5257 129.552 24.1678C129.883 24.8049 130.046 25.5507 130.041 26.4051V33.6577H126.419V27.1163C126.424 26.4841 126.263 25.9902 125.937 25.6346C125.616 25.279 125.169 25.1012 124.596 25.1012C124.216 25.1012 123.88 25.1852 123.589 25.3531C123.302 25.5161 123.08 25.7507 122.922 26.0569C122.769 26.3631 122.69 26.7335 122.685 27.1681ZM141.628 22.2787V24.9457H134.449V22.2787H141.628ZM135.953 19.5525H139.576V30.0795C139.576 30.3018 139.61 30.4821 139.679 30.6203C139.753 30.7537 139.86 30.85 139.998 30.9093C140.136 30.9636 140.302 30.9908 140.494 30.9908C140.632 30.9908 140.778 30.9784 140.931 30.9537C141.089 30.9241 141.208 30.8994 141.287 30.8796L141.835 33.4947C141.662 33.5441 141.418 33.6059 141.102 33.6799C140.791 33.754 140.418 33.8009 139.983 33.8207C139.134 33.8602 138.405 33.7614 137.798 33.5244C137.195 33.2824 136.733 32.907 136.412 32.3983C136.096 31.8896 135.943 31.25 135.953 30.4796V19.5525ZM152.249 33.6577H146.641V18.4857H152.242C153.788 18.4857 155.119 18.7894 156.235 19.3969C157.356 19.9994 158.22 20.8687 158.828 22.0046C159.435 23.1356 159.739 24.4888 159.739 26.0643C159.739 27.6447 159.435 29.0029 158.828 30.1388C158.225 31.2747 157.363 32.1464 156.242 32.7539C155.121 33.3564 153.79 33.6577 152.249 33.6577ZM150.308 30.5314H152.108C152.958 30.5314 153.676 30.3882 154.264 30.1018C154.857 29.8104 155.304 29.3387 155.605 28.6868C155.911 28.0299 156.064 27.1558 156.064 26.0643C156.064 24.9728 155.911 24.1036 155.605 23.4566C155.299 22.8047 154.847 22.3355 154.249 22.049C153.657 21.7576 152.926 21.612 152.057 21.612H150.308V30.5314ZM170.12 33.8726C168.929 33.8726 167.902 33.638 167.038 33.1688C166.178 32.6946 165.517 32.0205 165.052 31.1463C164.593 30.2672 164.363 29.2227 164.363 28.0127C164.363 26.8372 164.595 25.8099 165.06 24.9308C165.524 24.0468 166.178 23.3603 167.023 22.8714C167.867 22.3775 168.863 22.1305 170.008 22.1305C170.818 22.1305 171.559 22.2565 172.231 22.5083C172.903 22.7602 173.483 23.1331 173.972 23.627C174.461 24.1209 174.841 24.7308 175.113 25.4568C175.384 26.1779 175.52 27.0051 175.52 27.9386V28.8424H165.63V26.7384H172.149C172.144 26.3532 172.053 26.01 171.875 25.7087C171.697 25.4074 171.453 25.1728 171.142 25.0049C170.836 24.8321 170.483 24.7456 170.082 24.7456C169.677 24.7456 169.314 24.837 168.993 25.0197C168.672 25.1975 168.418 25.442 168.23 25.7531C168.043 26.0594 167.944 26.4075 167.934 26.7977V28.9387C167.934 29.4029 168.025 29.8104 168.208 30.161C168.391 30.5068 168.65 30.7759 168.986 30.9685C169.322 31.1611 169.722 31.2575 170.186 31.2575C170.507 31.2575 170.799 31.213 171.06 31.1241C171.322 31.0352 171.547 30.9043 171.735 30.7315C171.922 30.5586 172.063 30.3462 172.157 30.0944L175.483 30.1907C175.345 30.9364 175.041 31.5859 174.572 32.139C174.108 32.6872 173.498 33.1144 172.742 33.4207C171.986 33.7219 171.112 33.8726 170.12 33.8726ZM190.225 25.7531L186.899 25.842C186.864 25.605 186.771 25.3951 186.618 25.2123C186.464 25.0247 186.264 24.879 186.017 24.7753C185.775 24.6666 185.494 24.6123 185.173 24.6123C184.753 24.6123 184.395 24.6962 184.099 24.8642C183.807 25.0321 183.664 25.2593 183.669 25.5457C183.664 25.768 183.753 25.9606 183.936 26.1236C184.123 26.2865 184.457 26.4174 184.936 26.5162L187.129 26.9311C188.265 27.1484 189.109 27.5089 189.662 28.0127C190.22 28.5164 190.502 29.1832 190.507 30.0129C190.502 30.7932 190.27 31.4723 189.81 32.0501C189.356 32.628 188.734 33.0774 187.944 33.3984C187.153 33.7145 186.25 33.8726 185.232 33.8726C183.607 33.8726 182.326 33.5392 181.387 32.8724C180.454 32.2008 179.921 31.3019 179.787 30.1759L183.365 30.087C183.444 30.5018 183.649 30.8179 183.98 31.0352C184.311 31.2525 184.733 31.3612 185.247 31.3612C185.711 31.3612 186.089 31.2747 186.38 31.1019C186.672 30.929 186.82 30.6994 186.825 30.4129C186.82 30.1561 186.706 29.9511 186.484 29.798C186.262 29.64 185.914 29.5165 185.44 29.4276L183.454 29.0498C182.313 28.8424 181.464 28.4596 180.906 27.9015C180.348 27.3385 180.071 26.6224 180.076 25.7531C180.071 24.9926 180.274 24.3431 180.684 23.8048C181.093 23.2615 181.676 22.8467 182.432 22.5602C183.188 22.2738 184.079 22.1305 185.106 22.1305C186.647 22.1305 187.862 22.454 188.751 23.101C189.64 23.7431 190.132 24.6271 190.225 25.7531ZM195.211 33.6577V22.2787H198.834V33.6577H195.211ZM197.026 20.9526C196.517 20.9526 196.08 20.7847 195.715 20.4489C195.349 20.1081 195.167 19.6982 195.167 19.2191C195.167 18.745 195.349 18.34 195.715 18.0042C196.08 17.6634 196.517 17.493 197.026 17.493C197.54 17.493 197.977 17.6634 198.337 18.0042C198.703 18.34 198.885 18.745 198.885 19.2191C198.885 19.6982 198.703 20.1081 198.337 20.4489C197.977 20.7847 197.54 20.9526 197.026 20.9526ZM209.364 38.1619C208.283 38.1619 207.357 38.0113 206.586 37.71C205.816 37.4087 205.211 36.9964 204.771 36.4728C204.332 35.9493 204.067 35.3567 203.979 34.6949L207.409 34.5023C207.473 34.7344 207.591 34.9369 207.764 35.1097C207.942 35.2826 208.172 35.4159 208.453 35.5098C208.74 35.6036 209.075 35.6505 209.461 35.6505C210.068 35.6505 210.569 35.5024 210.964 35.206C211.365 34.9146 211.565 34.4035 211.565 33.6725V31.6723H211.439C211.295 32.023 211.078 32.3366 210.787 32.6132C210.495 32.8897 210.132 33.107 209.698 33.2651C209.268 33.4231 208.774 33.5021 208.216 33.5021C207.386 33.5021 206.626 33.3095 205.934 32.9243C205.248 32.5341 204.697 31.9316 204.282 31.1167C203.872 30.2969 203.667 29.2424 203.667 27.9534C203.667 26.6248 203.88 25.5309 204.305 24.6715C204.729 23.8073 205.285 23.1677 205.971 22.7528C206.663 22.338 207.406 22.1305 208.201 22.1305C208.799 22.1305 209.31 22.2342 209.735 22.4417C210.164 22.6442 210.518 22.9059 210.794 23.2269C211.071 23.548 211.281 23.8813 211.424 24.2271H211.528V22.2787H215.135V33.7022C215.135 34.6652 214.893 35.4777 214.409 36.1395C213.925 36.8013 213.249 37.3026 212.379 37.6433C211.51 37.9891 210.505 38.1619 209.364 38.1619ZM209.475 30.8648C209.915 30.8648 210.29 30.7488 210.601 30.5166C210.913 30.2845 211.152 29.9511 211.32 29.5165C211.488 29.0819 211.572 28.5609 211.572 27.9534C211.572 27.336 211.488 26.8051 211.32 26.3606C211.157 25.9112 210.918 25.5655 210.601 25.3235C210.29 25.0815 209.915 24.9605 209.475 24.9605C209.026 24.9605 208.646 25.0839 208.335 25.3309C208.023 25.5778 207.786 25.926 207.623 26.3754C207.465 26.8199 207.386 27.3459 207.386 27.9534C207.386 28.5609 207.468 29.0819 207.631 29.5165C207.794 29.9511 208.028 30.2845 208.335 30.5166C208.646 30.7488 209.026 30.8648 209.475 30.8648ZM223.988 27.1681V33.6577H220.365V22.2787H223.81V24.3678H223.936C224.188 23.6714 224.618 23.1257 225.225 22.7306C225.833 22.3306 226.556 22.1305 227.396 22.1305C228.196 22.1305 228.89 22.3108 229.478 22.6713C230.07 23.0269 230.53 23.5257 230.855 24.1678C231.186 24.8049 231.349 25.5507 231.344 26.4051V33.6577H227.722V27.1163C227.727 26.4841 227.566 25.9902 227.24 25.6346C226.919 25.279 226.472 25.1012 225.899 25.1012C225.519 25.1012 225.183 25.1852 224.892 25.3531C224.605 25.5161 224.383 25.7507 224.225 26.0569C224.072 26.3631 223.993 26.7335 223.988 27.1681Z" fill="white"/>
</svg>
